<svg width="41" height="40" viewBox="0 0 41 40" fill="none" xmlns="http://www.w3.org/2000/svg">
<g clip-path="url(#clip0_13_3521)">
<path d="M27.6276 0C25.4951 0.147499 23.0026 1.51249 21.5501 3.28998C20.2251 4.90247 19.1351 7.29746 19.5601 9.62494C21.8901 9.69744 24.2976 8.29995 25.6926 6.49246C26.9976 4.80997 27.9851 2.42999 27.6276 0Z" fill="white"/>
<path d="M36.0553 13.4199C34.0078 10.8524 31.1303 9.36243 28.4128 9.36243C24.8253 9.36243 23.3078 11.0799 20.8153 11.0799C18.2454 11.0799 16.2929 9.36743 13.1904 9.36743C10.1429 9.36743 6.89793 11.2299 4.84044 14.4149C1.94796 18.8999 2.44295 27.3323 7.13043 34.5148C8.80792 37.0848 11.0479 39.9747 13.9779 39.9997C16.5854 40.0247 17.3204 38.3273 20.8528 38.3098C24.3853 38.2898 25.0553 40.0222 27.6578 39.9947C30.5903 39.9722 32.9528 36.7698 34.6303 34.1998C35.8328 32.3573 36.2803 31.4298 37.2127 29.3498C30.4303 26.7673 29.3428 17.1224 36.0553 13.4199Z" fill="white"/>
</g>
<defs>
<clipPath id="clip0_13_3521">
<rect width="40" height="40" fill="white" transform="translate(0.129395)"/>
</clipPath>
</defs>
</svg>
