<svg width="40" height="40" viewBox="0 0 40 40" fill="none" xmlns="http://www.w3.org/2000/svg">
<g clip-path="url(#clip0_13_3502)">
<path d="M40 20C40 29.9828 32.6859 38.257 23.125 39.757V25.7813H27.7852L28.6719 20H23.125V16.2484C23.125 14.6664 23.9 13.125 26.3844 13.125H28.9062V8.20313C28.9062 8.20313 26.6172 7.8125 24.4289 7.8125C19.8609 7.8125 16.875 10.5813 16.875 15.5938V20H11.7969V25.7813H16.875V39.757C7.31406 38.257 0 29.9828 0 20C0 8.95469 8.95469 0 20 0C31.0453 0 40 8.95469 40 20Z" fill="white"/>
<path d="M27.7852 25.7812L28.6719 20H23.125V16.2484C23.125 14.6667 23.8998 13.125 26.3843 13.125H28.9062V8.20312C28.9062 8.20312 26.6175 7.8125 24.4293 7.8125C19.8609 7.8125 16.875 10.5813 16.875 15.5938V20H11.7969V25.7812H16.875V39.757C17.8933 39.9167 18.9369 40 20 40C21.0631 40 22.1067 39.9167 23.125 39.757V25.7812H27.7852Z" fill="#1877F2"/>
</g>
<defs>
<clipPath id="clip0_13_3502">
<rect width="40" height="40" fill="white"/>
</clipPath>
</defs>
</svg>
