<svg width="41" height="40" viewBox="0 0 41 40" fill="none" xmlns="http://www.w3.org/2000/svg">
<g clip-path="url(#clip0_13_3516)">
<path d="M40.0903 11.7601C39.9966 9.63476 39.6529 8.17359 39.1606 6.90748C38.6527 5.56353 37.8713 4.36029 36.8475 3.36003C35.8472 2.34421 34.6361 1.55487 33.3077 1.05489C32.0342 0.562549 30.5807 0.218854 28.4553 0.125146C26.3141 0.0235031 25.6344 0 20.2036 0C14.7729 0 14.0931 0.0235031 11.9598 0.11721C9.83446 0.210918 8.3733 0.554918 7.10749 1.04696C5.76323 1.55487 4.55999 2.33627 3.55974 3.36003C2.54392 4.36029 1.75488 5.57146 1.2546 6.89985C0.762256 8.17359 0.418561 9.62682 0.324854 11.7522C0.22321 13.8934 0.199707 14.5732 0.199707 20.0039C0.199707 25.4347 0.22321 26.1144 0.316917 28.2477C0.410625 30.3731 0.754625 31.8342 1.24697 33.1003C1.75488 34.4443 2.54392 35.6475 3.55974 36.6478C4.55999 37.6636 5.77117 38.4529 7.09955 38.9529C8.3733 39.4453 9.82653 39.789 11.9522 39.8827C14.0852 39.9767 14.7652 39.9999 20.196 39.9999C25.6267 39.9999 26.3065 39.9767 28.4398 39.8827C30.5651 39.789 32.0263 39.4453 33.2921 38.9529C35.9803 37.9136 38.1057 35.7882 39.145 33.1003C39.637 31.8266 39.981 30.3731 40.0747 28.2477C40.1685 26.1144 40.192 25.4347 40.192 20.0039C40.192 14.5732 40.184 13.8934 40.0903 11.7601ZM36.4882 28.0914C36.4022 30.0449 36.074 31.0998 35.8005 31.8031C35.1284 33.5457 33.7454 34.9287 32.0028 35.6008C31.2995 35.8743 30.237 36.2024 28.2911 36.2882C26.1813 36.3822 25.5486 36.4054 20.2116 36.4054C14.8745 36.4054 14.2338 36.3822 12.1317 36.2882C10.1782 36.2024 9.12326 35.8743 8.42 35.6008C7.55283 35.2803 6.76349 34.7724 6.1228 34.1082C5.45861 33.4596 4.9507 32.6782 4.6302 31.811C4.35671 31.1078 4.02858 30.0449 3.94281 28.0994C3.8488 25.9896 3.8256 25.3565 3.8256 20.0195C3.8256 14.6824 3.8488 14.0417 3.94281 11.9399C4.02858 9.98639 4.35671 8.93149 4.6302 8.22823C4.9507 7.36075 5.45861 6.57172 6.13074 5.93072C6.77906 5.26653 7.56046 4.75862 8.42794 4.43843C9.1312 4.16494 10.194 3.83681 12.1396 3.75073C14.2494 3.65703 14.8824 3.63352 20.2192 3.63352C25.5642 3.63352 26.1969 3.65703 28.2991 3.75073C30.2526 3.83681 31.3075 4.16494 32.0107 4.43843C32.8779 4.75862 33.6672 5.26653 34.3079 5.93072C34.9721 6.57935 35.48 7.36075 35.8005 8.22823C36.074 8.93149 36.4022 9.99402 36.4882 11.9399C36.5819 14.0497 36.6054 14.6824 36.6054 20.0195C36.6054 25.3565 36.5819 25.9816 36.4882 28.0914Z" fill="white"/>
<path d="M20.2037 9.72845C14.5309 9.72845 9.92822 14.3308 9.92822 20.0039C9.92822 25.677 14.5309 30.2793 20.2037 30.2793C25.8768 30.2793 30.4791 25.677 30.4791 20.0039C30.4791 14.3308 25.8768 9.72845 20.2037 9.72845ZM20.2037 26.6693C16.5234 26.6693 13.5382 23.6844 13.5382 20.0039C13.5382 16.3234 16.5234 13.3385 20.2037 13.3385C23.8842 13.3385 26.8691 16.3234 26.8691 20.0039C26.8691 23.6844 23.8842 26.6693 20.2037 26.6693Z" fill="white"/>
<path d="M33.2843 9.32218C33.2843 10.6469 32.2102 11.721 30.8852 11.721C29.5605 11.721 28.4863 10.6469 28.4863 9.32218C28.4863 7.99716 29.5605 6.92334 30.8852 6.92334C32.2102 6.92334 33.2843 7.99716 33.2843 9.32218Z" fill="white"/>
</g>
<defs>
<clipPath id="clip0_13_3516">
<rect width="40" height="40" fill="white" transform="translate(0.129395)"/>
</clipPath>
</defs>
</svg>
