<svg width="41" height="40" viewBox="0 0 41 40" fill="none" xmlns="http://www.w3.org/2000/svg">
<path d="M36.1214 36V35.9988H36.1294V24.2628C36.1294 18.5216 34.8934 14.0988 28.1814 14.0988C24.9546 14.0988 22.7894 15.8696 21.9054 17.548H21.8122V14.6348H15.4482V35.9988H22.075V25.42C22.075 22.6348 22.603 19.9412 26.0522 19.9412C29.451 19.9412 29.5014 23.12 29.5014 25.5984V36H36.1214Z" fill="white"/>
<path d="M4.65723 14.636H11.292V36H4.65723V14.636Z" fill="white"/>
<path d="M7.97219 4C5.85059 4 4.12939 5.7212 4.12939 7.8428C4.12939 9.9644 5.85059 11.7216 7.97219 11.7216C10.0938 11.7216 11.815 9.9644 11.815 7.8428C11.8134 5.7212 10.0922 4 7.97219 4Z" fill="white"/>
</svg>
