<svg width="24" height="24" viewBox="0 0 24 24" fill="none" xmlns="http://www.w3.org/2000/svg">
<g clip-path="url(#clip0_13_2675)">
<path d="M12 24C18.6274 24 24 18.6274 24 12C24 5.37258 18.6274 0 12 0C5.37258 0 0 5.37258 0 12C0 18.6274 5.37258 24 12 24Z" fill="#F85559"/>
<path d="M9.31598 7.63737C9.31629 7.96166 9.2204 8.27875 9.04043 8.54851C8.86046 8.81828 8.6045 9.02859 8.30496 9.15284C8.00542 9.27708 7.67575 9.30967 7.35768 9.24648C7.03961 9.18329 6.74743 9.02716 6.51812 8.79786C6.28882 8.56855 6.13269 8.27637 6.0695 7.9583C6.00631 7.64023 6.0389 7.31056 6.16315 7.01102C6.28739 6.71148 6.4977 6.45552 6.76747 6.27556C7.03723 6.09559 7.35433 5.99969 7.67861 6C8.11274 6.00042 8.52897 6.17306 8.83595 6.48004C9.14292 6.78701 9.31556 7.20324 9.31598 7.63737Z" fill="white"/>
<path d="M8.54064 9.95844H6.81643C6.59232 9.95844 6.41064 10.1401 6.41064 10.3642V17.5942C6.41064 17.8183 6.59232 18 6.81643 18H8.54064C8.76476 18 8.94643 17.8183 8.94643 17.5942V10.3642C8.94643 10.1401 8.76476 9.95844 8.54064 9.95844Z" fill="white"/>
<path d="M17.9605 14.1268V17.6274C17.9605 17.7262 17.9213 17.821 17.8514 17.8909C17.7815 17.9607 17.6867 18 17.5879 18H15.7374C15.6385 18 15.5438 17.9607 15.4739 17.8909C15.404 17.821 15.3647 17.7262 15.3647 17.6274V14.2358C15.3647 13.7289 15.5116 12.0253 14.0416 12.0253C12.9016 12.0253 12.6695 13.1968 12.6205 13.7226V17.6353C12.6185 17.7322 12.5787 17.8245 12.5098 17.8926C12.4408 17.9607 12.348 17.9992 12.2511 18H10.4605C10.4115 18.0002 10.363 17.9907 10.3177 17.9721C10.2724 17.9534 10.2312 17.926 10.1966 17.8913C10.1619 17.8567 10.1345 17.8155 10.1158 17.7702C10.0972 17.7249 10.0877 17.6764 10.0879 17.6274V10.3326C10.0877 10.2836 10.0972 10.2349 10.1158 10.1895C10.1344 10.1442 10.1619 10.1029 10.1965 10.0681C10.2311 10.0333 10.2722 10.0058 10.3176 9.98693C10.3629 9.96811 10.4115 9.95842 10.4605 9.95842H12.2511C12.3007 9.95758 12.3501 9.96664 12.3962 9.98507C12.4423 10.0035 12.4843 10.0309 12.5198 10.0658C12.5552 10.1006 12.5833 10.1421 12.6025 10.188C12.6217 10.2338 12.6316 10.283 12.6316 10.3326V10.9642C13.0547 10.3326 13.6832 9.84 15.0205 9.84C17.9779 9.83842 17.9605 12.6063 17.9605 14.1268Z" fill="white"/>
</g>
<defs>
<clipPath id="clip0_13_2675">
<rect width="24" height="24" fill="white"/>
</clipPath>
</defs>
</svg>
