<svg xmlns="http://www.w3.org/2000/svg" width="55" height="60" viewBox="0 0 55 60" fill="none">
  <mask id="mask0_2_305" style="mask-type:luminance" maskUnits="userSpaceOnUse" x="0" y="17" width="26" height="28">
    <path d="M17.6158 19.3957C13.8812 17.5975 5.16707 15.1078 1.73982 22.2082C-1.10341 28.0944 -0.918987 40.2665 5.82793 43.5247C12.2521 46.6292 21.9806 39.8823 25.0697 33.4582C28.5584 26.2655 21.3658 21.2092 17.6158 19.3957Z" fill="white"/>
  </mask>
  <g mask="url(#mask0_2_305)">
    <path d="M28.5584 15.1074H-1.10341V46.6289H28.5584V15.1074Z" fill="url(#paint0_linear_2_305)"/>
  </g>
  <mask id="mask1_2_305" style="mask-type:luminance" maskUnits="userSpaceOnUse" x="0" y="17" width="15" height="24">
    <path d="M8.82485 17.4897C6.01235 17.7049 3.32281 18.9344 1.73982 22.1926C-0.59624 27.0184 -0.888247 36.0553 2.7849 40.9579C9.53181 40.6967 14.9416 35.1331 14.9416 28.3248C14.9416 23.7295 12.4826 19.7182 8.82485 17.4897Z" fill="white"/>
  </mask>
  <g mask="url(#mask1_2_305)">
    <path d="M14.9416 17.4897H-0.888245V40.9579H14.9416V17.4897Z" fill="url(#paint1_linear_2_305)"/>
  </g>
  <path fill-rule="evenodd" clip-rule="evenodd" d="M10.8382 31.1373C10.3925 31.291 9.93141 31.7981 9.68551 32.4744C9.54719 32.8432 9.28592 33.75 9.80846 33.9344C10.3156 34.1188 10.7152 33.2735 10.8535 32.9047C11.0994 32.2285 11.0841 31.5522 10.8382 31.1373ZM14.8648 32.751C14.4345 32.9047 14.0195 33.3658 13.789 33.9959C13.666 34.334 13.4201 35.1947 13.8966 35.3637C14.373 35.5481 14.7419 34.7336 14.8802 34.3955C15.1107 33.7807 15.08 33.1506 14.8648 32.751ZM20.0134 29.4313C19.5677 29.6004 19.1066 30.0922 18.8607 30.7684C18.7224 31.1373 18.4611 32.044 18.9836 32.2285C19.4908 32.4129 19.8904 31.5676 20.0287 31.1988C20.2746 30.5225 20.2439 29.8463 20.0134 29.4313ZM14.7726 27.4795C14.3269 27.6486 13.8658 28.1404 13.6199 28.8166C13.4816 29.1854 13.2203 30.0922 13.7429 30.2766C14.25 30.4611 14.6496 29.6158 14.788 29.2469C15.0339 28.5553 15.0185 27.8945 14.7726 27.4795ZM9.54719 25.5123C9.10149 25.666 8.64043 26.1732 8.39453 26.8494C8.25621 27.2182 7.99494 28.125 8.51748 28.3094C9.02465 28.4938 9.42424 27.6486 9.56256 27.2797C9.79309 26.6035 9.77772 25.9273 9.54719 25.5123ZM5.3515 24.1598C4.90581 24.3135 4.44474 24.8207 4.19884 25.4969C4.06052 25.8658 3.79925 26.7725 4.32179 26.957C4.82896 27.1414 5.22855 26.2961 5.36687 25.9273C5.61277 25.251 5.5974 24.5748 5.3515 24.1598ZM8.82485 20.9478C8.44063 21.0861 8.05641 21.5164 7.84125 22.1004C7.7183 22.4232 7.50314 23.1916 7.94883 23.3607C8.39453 23.5297 8.73264 22.792 8.84022 22.4693C9.04002 21.8853 9.02465 21.3012 8.82485 20.9478ZM14.6343 22.7305C14.1732 22.8227 13.6507 23.2377 13.2972 23.8525C13.1128 24.1906 12.7132 25.0359 13.1896 25.3125C13.666 25.5738 14.1886 24.8053 14.373 24.4518C14.7265 23.8371 14.8033 23.1762 14.6343 22.7305ZM19.2142 24.9436C18.8453 25.082 18.4765 25.4816 18.2767 26.0195C18.1691 26.3115 17.9539 27.0492 18.3689 27.2029C18.7838 27.3566 19.1066 26.665 19.2142 26.3576C19.4293 25.835 19.414 25.2818 19.2142 24.9436ZM5.07486 35.1947C4.6599 35.3483 4.24495 35.794 4.01441 36.4242C3.89146 36.7623 3.66093 37.5922 4.122 37.7612C4.59843 37.9303 4.95191 37.1465 5.07486 36.8084C5.32076 36.1936 5.29003 35.5789 5.07486 35.1947ZM8.96317 38.1608C8.54822 38.3145 8.13326 38.7602 7.90273 39.3903C7.77977 39.7285 7.53387 40.5584 8.01031 40.7274C8.48674 40.8965 8.84022 40.1127 8.96317 39.7746C9.19371 39.1598 9.17834 38.5451 8.96317 38.1608ZM6.25826 29.8309C5.8433 29.9846 5.42835 30.4303 5.19781 31.0604C5.07486 31.3986 4.82896 32.2285 5.3054 32.3975C5.78183 32.5666 6.13531 31.7828 6.25826 31.4447C6.48879 30.8299 6.47343 30.2152 6.25826 29.8309Z" fill="#E60000"/>
  <mask id="mask2_2_305" style="mask-type:luminance" maskUnits="userSpaceOnUse" x="13" y="0" width="28" height="25">
    <path d="M13.4662 1.69057C17.1394 4.64138 21.0123 8.60654 23.5174 12.7407C26.8525 18.4887 25.7767 24.5286 25.7767 24.5286C27.8053 17.5666 32.9693 16.7366 36.919 12.4026C39.2397 9.85141 40.9764 6.22437 40.9149 1.09119C40.1926 0.230532 27.4211 0.153687 25.623 11.0502C24.0861 7.91494 21.6117 3.85757 17.8156 0C16.3248 0.430327 14.8648 0.998973 13.4662 1.69057Z" fill="white"/>
  </mask>
  <g mask="url(#mask2_2_305)">
    <path d="M27.2213 38.2837L53.2407 12.2643L27.2213 -13.7551L1.20189 12.2643L27.2213 38.2837Z" fill="url(#paint2_linear_2_305)"/>
  </g>
  <mask id="mask3_2_305" style="mask-type:luminance" maskUnits="userSpaceOnUse" x="25" y="1" width="16" height="24">
    <path d="M25.8535 20.21C26.0994 22.7459 25.7766 24.5287 25.7766 24.5287C27.8053 17.5666 32.9692 16.7367 36.919 12.4027C39.1014 9.98978 40.7766 6.62401 40.8996 1.93652C40.1772 3.75004 38.8862 5.82484 36.5963 7.4693C31.3709 11.2039 26.1455 15.6762 25.8535 20.21Z" fill="white"/>
  </mask>
  <g mask="url(#mask3_2_305)">
    <path d="M33.3381 32.0901L52.1956 13.2325L33.3381 -5.625L14.4806 13.2325L33.3381 32.0901Z" fill="url(#paint3_linear_2_305)"/>
  </g>
  <mask id="mask4_2_305" style="mask-type:luminance" maskUnits="userSpaceOnUse" x="8" y="6" width="17" height="18">
    <path d="M8.01028 6.40877C8.01028 6.40877 8.22545 14.7233 15.8945 17.1977C20.167 18.919 23.1793 20.963 24.6855 23.1147C23.6865 13.6014 19.4754 6.02455 8.01028 6.40877Z" fill="white"/>
  </mask>
  <g mask="url(#mask4_2_305)">
    <path d="M24.6855 6.02441H8.01028V23.1299H24.6855V6.02441Z" fill="url(#paint4_linear_2_305)"/>
  </g>
  <mask id="mask5_2_305" style="mask-type:luminance" maskUnits="userSpaceOnUse" x="8" y="6" width="17" height="18">
    <path d="M8.01028 6.40877C8.01028 6.40877 8.04102 7.49996 8.44061 8.99073C8.44061 8.99073 21.75 8.91389 24.6855 23.1147C23.6865 13.6014 19.4754 6.02455 8.01028 6.40877Z" fill="white"/>
  </mask>
  <g mask="url(#mask5_2_305)">
    <path d="M28.9734 7.16185L9.13222 1.84424L3.73776 21.9774L23.5789 27.295L28.9734 7.16185Z" fill="url(#paint5_linear_2_305)"/>
  </g>
  <mask id="mask6_2_305" style="mask-type:luminance" maskUnits="userSpaceOnUse" x="11" y="30" width="30" height="31">
    <path d="M25.7459 30.9224C33.7684 30.9224 40.2848 37.4234 40.2848 45.4613C40.2848 53.4838 33.7838 60.0002 25.7459 60.0002C17.7234 60.0002 11.207 53.4992 11.207 45.4613C11.207 37.4234 17.708 30.9224 25.7459 30.9224Z" fill="white"/>
  </mask>
  <g mask="url(#mask6_2_305)">
    <path d="M40.2848 30.9224H11.207V60.0002H40.2848V30.9224Z" fill="url(#paint6_linear_2_305)"/>
  </g>
  <mask id="mask7_2_305" style="mask-type:luminance" maskUnits="userSpaceOnUse" x="21" y="31" width="20" height="29">
    <path d="M28.5891 31.1987C35.2592 32.5204 40.2695 38.4067 40.2695 45.461C40.2695 53.4835 33.7684 59.9999 25.7305 59.9999C24.1476 59.9999 22.626 59.7386 21.1967 59.2776C30.5256 59.9845 38.0871 41.0655 28.5891 31.1987Z" fill="white"/>
  </mask>
  <g mask="url(#mask7_2_305)">
    <path d="M40.2695 31.1987H21.1967V59.9845H40.2695V31.1987Z" fill="url(#paint7_linear_2_305)"/>
  </g>
  <mask id="mask8_2_305" style="mask-type:luminance" maskUnits="userSpaceOnUse" x="11" y="31" width="16" height="25">
    <path d="M15.3412 55.6198C12.7746 53.0071 11.207 49.4108 11.207 45.461C11.207 38.3298 16.3402 32.3975 23.1179 31.168C25.4539 33.8114 26.8832 37.2694 26.8832 41.0809C26.8832 48.1505 21.9652 54.0829 15.3412 55.6198Z" fill="white"/>
  </mask>
  <g mask="url(#mask8_2_305)">
    <path d="M26.8832 31.1523H11.207V55.6041H26.8832V31.1523Z" fill="url(#paint8_linear_2_305)"/>
  </g>
  <path fill-rule="evenodd" clip-rule="evenodd" d="M25.1619 57.5101C19.5369 55.9579 15.3873 50.8093 15.3873 44.6771C15.3873 43.6013 15.5103 42.5562 15.7562 41.5573C16.3402 39.0983 17.6158 36.9159 19.3525 35.1946C16.8781 36.7468 14.9878 39.1597 14.1425 42.0337C13.8197 43.1095 13.6507 44.2622 13.6507 45.4456C13.666 51.9312 18.7685 57.2181 25.1619 57.5101Z" fill="white"/>
  <mask id="mask9_2_305" style="mask-type:luminance" maskUnits="userSpaceOnUse" x="27" y="15" width="28" height="43">
    <path d="M51.6424 45.5532C49.4139 50.8862 43.7735 59.7079 36.5041 56.2346C32.6158 54.3749 33.8607 50.6249 32.9232 47.2131C30.2951 37.6075 25.1619 34.0112 27.8053 24.9436C33.123 6.79306 63.9374 16.1834 51.6424 45.5532Z" fill="white"/>
  </mask>
  <g mask="url(#mask9_2_305)">
    <path d="M63.9374 6.79297H25.1619V59.7078H63.9374V6.79297Z" fill="url(#paint9_linear_2_305)"/>
  </g>
  <mask id="mask10_2_305" style="mask-type:luminance" maskUnits="userSpaceOnUse" x="35" y="28" width="20" height="30">
    <path d="M51.6424 45.5531C49.4139 50.886 43.7735 59.7077 36.5041 56.2344C36.2736 56.1268 36.0738 56.0039 35.874 55.8809C41.8217 55.9885 56.0071 42.5715 54.0553 28.2017C55.0389 32.8123 54.5471 38.6217 51.6424 45.5531Z" fill="white"/>
  </mask>
  <g mask="url(#mask10_2_305)">
    <path d="M55.9917 28.2017H35.8586V59.7077H55.9917V28.2017Z" fill="url(#paint10_linear_2_305)"/>
  </g>
  <mask id="mask11_2_305" style="mask-type:luminance" maskUnits="userSpaceOnUse" x="27" y="15" width="18" height="27">
    <path d="M31.0328 41.8646C28.4816 35.8554 25.6998 32.1054 27.8053 24.9281C29.9416 17.628 36.2121 14.7847 42.1444 15.922C43.4508 18.4271 44.1731 21.2857 44.1731 24.3134C44.1885 32.6279 38.6403 39.6515 31.0328 41.8646Z" fill="white"/>
  </mask>
  <g mask="url(#mask11_2_305)">
    <path d="M44.1885 14.7852H25.7152V41.865H44.1885V14.7852Z" fill="url(#paint11_linear_2_305)"/>
  </g>
  <path fill-rule="evenodd" clip-rule="evenodd" d="M35.3975 43.9552C35.3975 43.9552 29.3422 36.486 29.9109 28.3251C30.3105 22.6694 34.8443 22.0547 32.9846 28.6786C32.0625 31.9522 33.0154 37.1776 35.3975 43.9552Z" fill="white"/>
  <defs>
    <linearGradient id="paint0_linear_2_305" x1="21.6924" y1="30.8708" x2="-2.98297" y2="30.8708" gradientUnits="userSpaceOnUse">
      <stop stop-color="#FF0000"/>
      <stop offset="1" stop-color="#F38288"/>
    </linearGradient>
    <linearGradient id="paint1_linear_2_305" x1="21.7535" y1="29.2315" x2="2.15546" y2="29.2315" gradientUnits="userSpaceOnUse">
      <stop stop-color="#FF0000"/>
      <stop offset="1" stop-color="#F38288"/>
    </linearGradient>
    <linearGradient id="paint2_linear_2_305" x1="25.5397" y1="13.9498" x2="41.9465" y2="-2.457" gradientUnits="userSpaceOnUse">
      <stop stop-color="#4BBC39"/>
      <stop offset="1" stop-color="#BEDE19"/>
    </linearGradient>
    <linearGradient id="paint3_linear_2_305" x1="27.3192" y1="19.258" x2="43.8919" y2="2.6853" gradientUnits="userSpaceOnUse">
      <stop stop-color="#3AA34E"/>
      <stop offset="1" stop-color="#BEDE19"/>
    </linearGradient>
    <linearGradient id="paint4_linear_2_305" x1="20.3713" y1="14.5706" x2="3.55301" y2="14.5706" gradientUnits="userSpaceOnUse">
      <stop stop-color="#4BBC39"/>
      <stop offset="1" stop-color="#BEDE19"/>
    </linearGradient>
    <linearGradient id="paint5_linear_2_305" x1="24.2613" y1="16.6901" x2="4.31063" y2="11.3444" gradientUnits="userSpaceOnUse">
      <stop stop-color="#3AA34E"/>
      <stop offset="1" stop-color="#BEDE19"/>
    </linearGradient>
    <linearGradient id="paint6_linear_2_305" x1="12.5431" y1="45.4558" x2="33.7789" y2="45.4558" gradientUnits="userSpaceOnUse">
      <stop stop-color="#FFBE04"/>
      <stop offset="1" stop-color="#FF7F00"/>
    </linearGradient>
    <linearGradient id="paint7_linear_2_305" x1="12.3805" y1="45.5967" x2="29.4365" y2="45.5967" gradientUnits="userSpaceOnUse">
      <stop stop-color="#FFBE04"/>
      <stop offset="1" stop-color="#FF7F00"/>
    </linearGradient>
    <linearGradient id="paint8_linear_2_305" x1="18.6455" y1="43.3886" x2="33.579" y2="43.3886" gradientUnits="userSpaceOnUse">
      <stop stop-color="#FFBE04"/>
      <stop offset="1" stop-color="#FF7F00"/>
    </linearGradient>
    <linearGradient id="paint9_linear_2_305" x1="52.2995" y1="33.2505" x2="29.0926" y2="33.2505" gradientUnits="userSpaceOnUse">
      <stop stop-color="#016737"/>
      <stop offset="1" stop-color="#4BBC39"/>
    </linearGradient>
    <linearGradient id="paint10_linear_2_305" x1="47.8086" y1="43.9586" x2="32.0878" y2="43.9586" gradientUnits="userSpaceOnUse">
      <stop stop-color="#016737"/>
      <stop offset="1" stop-color="#4BBC39"/>
    </linearGradient>
    <linearGradient id="paint11_linear_2_305" x1="52.4699" y1="28.3283" x2="31.9035" y2="28.3283" gradientUnits="userSpaceOnUse">
      <stop stop-color="#016737"/>
      <stop offset="1" stop-color="#4BBC39"/>
    </linearGradient>
  </defs>
</svg>