<svg xmlns="http://www.w3.org/2000/svg" width="160" height="25" viewBox="0 0 160 25" fill="none">
  <path d="M45.8529 0.640869L50.4018 7.64678L58.4705 9.80803L53.2131 16.2993L53.651 24.6409L45.8529 21.6468L38.0549 24.6409L38.4927 16.2993L33.2354 9.80803L41.3041 7.64678L45.8529 0.640869Z" fill="#F85559"/>
  <path d="M45.9043 0.640869L50.4532 7.64678L58.5219 9.80803L53.2645 16.2993L53.7023 24.6409L45.9043 21.6468V0.640869Z" fill="#FBC0A8"/>
  <path d="M12.6176 0.640869L17.1664 7.64678L25.2351 9.80803L19.9778 16.2993L20.4156 24.6409L12.6176 21.6468L4.81952 24.6409L5.25735 16.2993L0 9.80803L8.06871 7.64678L12.6176 0.640869Z" fill="#F85559"/>
  <path d="M79.6176 0.640869L84.1664 7.64678L92.2351 9.80803L86.9778 16.2993L87.4156 24.6409L79.6176 21.6468L71.8195 24.6409L72.2574 16.2993L67 9.80803L75.0687 7.64678L79.6176 0.640869Z" fill="#FBC0A8"/>
  <path d="M146.618 0.640869L151.166 7.64678L159.235 9.80803L153.978 16.2993L154.416 24.6409L146.618 21.6468L138.82 24.6409L139.257 16.2993L134 9.80803L142.069 7.64678L146.618 0.640869Z" fill="#FBC0A8"/>
  <path d="M113.618 0.640869L118.166 7.64678L126.235 9.80803L120.978 16.2993L121.416 24.6409L113.618 21.6468L105.82 24.6409L106.257 16.2993L101 9.80803L109.069 7.64678L113.618 0.640869Z" fill="#FBC0A8"/>
</svg>