<svg width="24" height="24" viewBox="0 0 24 24" fill="none" xmlns="http://www.w3.org/2000/svg">
<g clip-path="url(#clip0_13_2669)">
<path d="M12 24C18.6274 24 24 18.6274 24 12C24 5.37258 18.6274 0 12 0C5.37258 0 0 5.37258 0 12C0 18.6274 5.37258 24 12 24Z" fill="#F85559"/>
<path d="M19.773 7.17948C19.1883 7.43484 18.5699 7.60448 17.9367 7.68317C18.6041 7.28738 19.1031 6.66035 19.3388 5.92106C18.7141 6.29185 18.0306 6.55299 17.3178 6.69317C16.881 6.22603 16.3137 5.90115 15.6898 5.76078C15.0658 5.6204 14.4141 5.67103 13.8193 5.90608C13.2246 6.14113 12.7143 6.54972 12.3549 7.0787C11.9954 7.60768 11.8035 8.23258 11.8041 8.87211C11.8018 9.11622 11.8267 9.35982 11.8783 9.59843C10.6104 9.53615 9.36981 9.20709 8.23771 8.63274C7.1056 8.05839 6.10739 7.25167 5.30829 6.26527C4.89754 6.96697 4.77029 7.79905 4.95254 8.59143C5.13478 9.38382 5.61278 10.0767 6.28881 10.5284C5.78422 10.5148 5.29031 10.38 4.84881 10.1353V10.17C4.85023 10.9055 5.10482 11.6181 5.56978 12.188C6.03474 12.7579 6.68172 13.1504 7.40197 13.2995C7.1294 13.3711 6.84852 13.4061 6.56671 13.4037C6.36379 13.4074 6.16106 13.3894 5.96197 13.35C6.16832 13.9826 6.56559 14.5357 7.09913 14.9332C7.63268 15.3307 8.27629 15.5532 8.94145 15.57C7.81427 16.451 6.42472 16.9296 4.99408 16.9295C4.73917 16.9317 4.4844 16.9169 4.23145 16.8853C5.69019 17.8258 7.39054 18.3227 9.12618 18.3158C14.992 18.3158 18.1988 13.4574 18.1988 9.24632C18.1988 9.1058 18.1988 8.97001 18.1878 8.83422C18.8123 8.38349 19.3495 7.82276 19.773 7.17948Z" fill="white"/>
</g>
<defs>
<clipPath id="clip0_13_2669">
<rect width="24" height="24" fill="white"/>
</clipPath>
</defs>
</svg>
