<svg width="58" height="40" viewBox="0 0 58 40" fill="none" xmlns="http://www.w3.org/2000/svg">
<path d="M55.9526 6.25899C55.294 3.81162 53.3644 1.88249 50.9175 1.22347C46.4468 0 28.5643 0 28.5643 0C28.5643 0 10.6821 0 6.21148 1.17683C3.81162 1.83542 1.83498 3.81206 1.17639 6.25899C0 10.7292 0 20 0 20C0 20 0 29.3174 1.17639 33.741C1.83542 36.1879 3.76455 38.1175 6.21192 38.7765C10.7292 40 28.5647 40 28.5647 40C28.5647 40 46.4468 40 50.9175 38.8232C53.3649 38.1646 55.294 36.235 55.953 33.7881C57.1294 29.3174 57.1294 20.0471 57.1294 20.0471C57.1294 20.0471 57.1765 10.7292 55.9526 6.25899Z" fill="white"/>
<path d="M22.8706 28.5648L37.7409 20.0001L22.8706 11.4354V28.5648Z" fill="#FF0000"/>
</svg>
